<?xml version="1.0" encoding="UTF-8"?>
<svg width="60px" height="59px" viewBox="0 0 60 59" version="1.1" xmlns="http://www.w3.org/2000/svg" xmlns:xlink="http://www.w3.org/1999/xlink">
    <!-- Generator: Sketch 47.1 (45422) - http://www.bohemiancoding.com/sketch -->
    <title>Github</title>
    <desc>Created with Sketch.</desc>
    <defs></defs>
    <g id="Page-1" stroke="none" stroke-width="1" fill="none" fill-rule="evenodd">
        <g id="Social_icons" transform="translate(-702.000000, -703.000000)" fill="#161514">
            <g id="Github" transform="translate(702.000000, 703.000000)">
                <path d="M30.0002484,0 C13.4337404,0 0,13.5416647 0,30.2468578 C0,43.6107118 8.59598427,54.9485252 20.5160008,58.9480145 C22.0153177,59.2280038 22.5657628,58.2918678 22.5657628,57.4929717 C22.5657628,56.7717113 22.5379425,54.3890475 22.5250259,51.8616307 C14.1789278,53.6913282 12.4178017,48.2928941 12.4178017,48.2928941 C11.0531153,44.7967845 9.08681432,43.86716 9.08681432,43.86716 C6.3648934,41.9898793 9.29198924,42.0284467 9.29198924,42.0284467 C12.3045332,42.2418196 13.8907887,45.1453937 13.8907887,45.1453937 C16.566508,49.7694745 20.9089629,48.4326384 22.6209066,47.6597878 C22.8901677,45.7048715 23.6676465,44.3705396 24.5256055,43.6152197 C17.8621403,42.8503831 10.8573794,40.2568508 10.8573794,28.6670971 C10.8573794,25.3648263 12.0293107,22.666611 13.9484165,20.5484093 C13.6369282,19.786578 12.61006,16.7102019 14.2390395,12.5439211 C14.2390395,12.5439211 16.7582695,11.7310005 22.491244,15.6443392 C24.884289,14.9741681 27.4507141,14.6380807 30.0002484,14.6265606 C32.5497827,14.6380807 35.118195,14.9741681 37.515711,15.6443392 C43.2417305,11.7310005 45.7574829,12.5439211 45.7574829,12.5439211 C47.3904368,16.7102019 46.3630718,19.786578 46.0515835,20.5484093 C47.9751604,22.666611 49.139143,25.3648263 49.139143,28.6670971 C49.139143,40.2843989 42.1209687,42.8423691 35.4406127,43.5911777 C36.5166632,44.529818 37.4754709,46.3705347 37.4754709,49.1924662 C37.4754709,53.2395386 37.4406955,56.4967307 37.4406955,57.4929717 C37.4406955,58.2978783 37.9807079,59.2410265 39.5013869,58.9440075 C51.4149451,54.9400103 60,43.6062039 60,30.2468578 C60,13.5416647 46.5682467,0 30.0002484,0" id="Fill-4"></path>
                <path d="M11.4510744,43.2203334 C11.385124,43.3691142 11.1510744,43.4137485 10.9378512,43.3115856 C10.7206612,43.2138862 10.5986777,43.0110484 10.6690909,42.8617716 C10.7335537,42.7085273 10.9680992,42.6658768 11.1847934,42.7685356 C11.4024793,42.866235 11.5264463,43.0710566 11.4510744,43.2203334" id="Fill-5"></path>
                <path d="M12.6639669,44.573247 C12.521157,44.7056619 12.2419835,44.6441659 12.052562,44.4348808 C11.8566942,44.2260917 11.82,43.9468797 11.9647934,43.8124811 C12.1120661,43.6800661 12.3828099,43.7420581 12.5791736,43.9508472 C12.7750413,44.162116 12.8132231,44.4393443 12.6639669,44.573247" id="Fill-6"></path>
                <path d="M13.8446281,46.2981127 C13.661157,46.4255683 13.361157,46.3060477 13.1757025,46.03973 C12.9922314,45.7734123 12.9922314,45.4540295 13.1796694,45.326078 C13.3656198,45.1981265 13.661157,45.3131836 13.8490909,45.5775176 C14.0320661,45.8482987 14.0320661,46.1676815 13.8446281,46.2981127" id="Fill-7"></path>
                <path d="M15.4621488,47.9644579 C15.2980165,48.1454746 14.9484298,48.0968728 14.692562,47.8498967 C14.4307438,47.6083758 14.3578512,47.265684 14.5224793,47.0846673 C14.688595,46.9031547 15.0401653,46.9542361 15.2980165,47.1992285 C15.5578512,47.4402535 15.6371901,47.785425 15.4621488,47.9644579" id="Fill-8"></path>
                <path d="M17.6935537,48.9320292 C17.621157,49.166607 17.2844628,49.2732332 16.9452893,49.1735501 C16.6066116,49.0708913 16.3849587,48.7961427 16.4533884,48.5590853 C16.5238017,48.3230197 16.8619835,48.21193 17.2036364,48.3185563 C17.5418182,48.4207191 17.7639669,48.693484 17.6935537,48.9320292" id="Fill-9"></path>
                <path d="M20.1441322,49.1115581 C20.152562,49.3585342 19.8649587,49.5633558 19.5089256,49.5678193 C19.1509091,49.5757542 18.8613223,49.375892 18.8573554,49.1328833 C18.8573554,48.8834275 19.1385124,48.6805896 19.4965289,48.6746384 C19.852562,48.6676953 20.1441322,48.8660697 20.1441322,49.1115581" id="Fill-10"></path>
                <path d="M22.4246281,48.7232401 C22.4672727,48.9642651 22.2198347,49.2117372 21.866281,49.2776967 C21.5186777,49.3411765 21.1968595,49.1923956 21.1527273,48.9533545 C21.1095868,48.7063783 21.3614876,48.4589062 21.708595,48.3949304 C22.0626446,48.3334344 22.3795041,48.4782477 22.4246281,48.7232401" id="Fill-11"></path>
            </g>
        </g>
    </g>
</svg>