<?xml version="1.0" encoding="UTF-8"?>
<svg width="60px" height="60px" viewBox="0 0 60 60" version="1.1" xmlns="http://www.w3.org/2000/svg" xmlns:xlink="http://www.w3.org/1999/xlink">
    <!-- Generator: Sketch 47.1 (45422) - http://www.bohemiancoding.com/sketch -->
    <title>Phone</title>
    <desc>Created with Sketch.</desc>
    <defs></defs>
    <g id="Page-1" stroke="none" stroke-width="1" fill="none" fill-rule="evenodd">
        <g id="Social_icons" transform="translate(-802.000000, -803.000000)">
            <g id="Phone" transform="translate(802.000000, 803.000000)">
                <path d="M0,30 C0,13.4314567 13.4314567,0 30,0 C46.5685433,0 60,13.4314567 60,30 C60,46.5685433 46.5685433,60 30,60 C13.4314567,60 0,46.5685433 0,30 Z" id="back" fill="#6FD454"></path>
                <path d="M21.2142895,15.0612255 C21.5785814,15.0306128 21.8908315,15.1193898 22.0928758,15.4530689 C22.5459447,16.1877752 23.0020749,16.9224816 23.4337148,17.6755556 C23.9327029,18.5449581 24.3918944,19.4388508 24.8816986,20.3174371 C25.0072109,20.5531554 25.1817037,20.7674447 25.3286449,20.9939792 C25.4633411,21.2082685 25.5919147,21.4286804 25.717427,21.6429698 C25.9745743,22.1297127 25.9623291,22.6195169 25.5796696,23.008299 C25.0347624,23.5654513 24.4347522,24.0828071 23.856171,24.6124079 C23.3724893,25.0562929 22.87044,25.4818104 22.3990034,25.9348793 C22.0316503,26.2899873 21.9367507,26.7338724 22.1847141,27.2022477 C22.5673736,27.9185864 22.9469719,28.634925 23.3663668,29.3359573 C24.9214952,31.9288584 26.9082636,34.1329774 29.4185102,35.8319858 C30.3858735,36.4901603 31.3930335,37.0932317 32.4093772,37.6687517 C33.3675567,38.2105976 33.7410325,38.1187593 34.4849226,37.2891534 C35.1767711,36.520773 35.8441293,35.7401475 36.5329165,34.9656446 C36.6982255,34.7789068 36.8972084,34.6135978 37.0900688,34.4544115 C37.4819122,34.1237936 37.9104909,34.0870583 38.3604985,34.3135928 C38.4860109,34.3748183 38.620707,34.4299213 38.730913,34.5095144 C39.9248108,35.3636106 41.2595273,35.966682 42.5207731,36.6922045 C43.1973152,37.0809866 43.8554897,37.4973202 44.5197866,37.8952861 C44.877956,38.1065142 45.021836,38.4157031 44.9973457,38.8412205 C44.9299977,40.0381796 44.7310147,41.2137097 44.036105,42.2239309 C43.7452837,42.6433258 43.3320114,43.010679 42.9156778,43.3076228 C41.7615766,44.1157998 40.4727792,44.6147878 39.1013274,44.9209154 C37.8553879,45.1994916 36.6125097,45.0984695 35.4186119,44.7249938 C33.1134708,44.0147776 30.8420037,43.2004781 28.7511519,41.9667837 C26.8531606,40.8432953 25.1266007,39.4871499 23.5286144,37.971818 C21.5051107,36.0462752 19.6989577,33.9462396 18.2387288,31.5553827 C17.2866719,30.0033156 16.6070685,28.3318587 15.9917519,26.6267277 C15.6182762,25.5981389 15.2509231,24.5787338 15.0856141,23.4889194 C14.895815,22.255225 15.0274499,21.0674498 15.4223545,19.8980422 C15.7774626,18.8419019 16.2213477,17.8316807 16.8917672,16.9286041 C17.4183067,16.2275718 18.0764812,15.7132774 18.927516,15.4836817 C19.6101806,15.3030664 20.2989678,15.1591864 20.9846937,15 C21.0734708,15.0704094 21.1438801,15.0704094 21.2142895,15.0612255 Z" id="Shape" fill="#FFFFFF"></path>
            </g>
        </g>
    </g>
</svg>