<?xml version="1.0" encoding="UTF-8"?>
<svg width="60px" height="60px" viewBox="0 0 60 60" version="1.1" xmlns="http://www.w3.org/2000/svg" xmlns:xlink="http://www.w3.org/1999/xlink">
    <!-- Generator: Sketch 47.1 (45422) - http://www.bohemiancoding.com/sketch -->
    <title>QQ</title>
    <desc>Created with Sketch.</desc>
    <defs></defs>
    <g id="Page-1" stroke="none" stroke-width="1" fill="none" fill-rule="evenodd">
        <g id="Social_icons" transform="translate(-312.000000, -300.000000)">
            <g id="QQ" transform="translate(312.000000, 300.000000)">
                <path d="M0,30 C0,13.4314567 13.4314567,0 30,0 C46.5685433,0 60,13.4314567 60,30 C60,46.5685433 46.5685433,60 30,60 C13.4314567,60 0,46.5685433 0,30 Z" id="back" fill="#FFFFFF"></path>
                <g transform="translate(14.000000, 11.000000)">
                    <path d="M29.2104,36.3419 C28.9794,38.1679 25.9994,39.2919 22.5574,38.8549 C19.1164,38.4159 16.5134,36.5799 16.7474,34.7529 C16.9794,32.9269 19.9584,31.8019 23.3994,32.2409 C26.8424,32.6789 29.4424,34.5159 29.2104,36.3419" id="Fill-1" fill="#E48013"></path>
                    <path d="M3.2372,36.1656 C3.5082,37.9966 6.6032,39.1686 10.1542,38.7856 C13.7042,38.4006 16.3612,36.6046 16.0902,34.7726 C15.8202,32.9426 12.7212,31.7696 9.1722,32.1546 C5.6222,32.5386 2.9632,34.3346 3.2372,36.1656" id="Fill-2" fill="#E48013"></path>
                    <path d="M28.9023,12.359 C28.9023,19.183 23.3273,24.717 16.4473,24.717 C9.5713,24.717 3.9953,19.183 3.9953,12.359 C3.9953,5.532 9.5713,-7.10542736e-15 16.4473,-7.10542736e-15 C23.3273,-7.10542736e-15 28.9023,5.532 28.9023,12.359" id="Fill-3" fill="#000000"></path>
                    <path d="M3.1279,35.8014 C3.3989,37.6324 6.4939,38.8044 10.0449,38.4214 C13.5949,38.0364 16.2519,36.2404 15.9809,34.4084 C15.7109,32.5784 12.6119,31.4054 9.0629,31.7904 C5.5129,32.1744 2.8539,33.9704 3.1279,35.8014" id="Fill-4" fill="#F5A519"></path>
                    <path d="M29.351,35.8995 C29.12,37.7255 26.14,38.8495 22.698,38.4125 C19.257,37.9735 16.654,36.1375 16.888,34.3105 C17.12,32.4845 20.099,31.3595 23.54,31.7985 C26.983,32.2365 29.583,34.0735 29.351,35.8995" id="Fill-5" fill="#F5A519"></path>
                    <path d="M28.2797,26.0455 C28.2797,31.5745 22.8987,36.0565 16.2637,36.0565 C9.6287,36.0565 4.2497,31.5745 4.2497,26.0455 C4.2497,20.5165 9.6287,16.0345 16.2637,16.0345 C22.8987,16.0345 28.2797,20.5165 28.2797,26.0455" id="Fill-6" fill="#000000"></path>
                    <path d="M6.2158,24.0562 C4.4518,27.5772 1.6848,29.8062 0.8628,29.3692 C-0.2242,28.7892 -0.4872,25.2322 1.2778,21.7122 C3.0448,18.1932 5.8928,15.9382 7.2568,16.6212 C8.6178,17.3062 7.9808,20.5362 6.2158,24.0562" id="Fill-7" fill="#000000"></path>
                    <path d="M26.5014,24.4996 C28.1154,27.6986 30.4404,30.1816 31.4344,29.9626 C32.2364,29.7866 32.8094,26.0456 31.3404,22.4626 C29.8474,18.8196 27.1394,16.2036 25.7744,16.8876 C24.4114,17.5716 24.7274,20.9846 26.5014,24.4996" id="Fill-8" fill="#000000"></path>
                    <path d="M7.4501,19.7564 C6.7081,21.2784 6.2831,23.0084 6.2831,24.8464 C6.2831,30.9144 10.8541,35.8334 16.4931,35.8334 C22.1321,35.8334 26.7021,30.9144 26.7021,24.8464 C26.7021,23.0584 26.2971,21.3754 25.5931,19.8834 C20.3971,22.5324 10.8831,20.5914 7.4501,19.7564" id="Fill-9" fill="#FFFFFF"></path>
                    <path d="M15.5908,9.5094 C15.5908,11.1574 14.4998,12.4934 13.1528,12.4934 C11.8068,12.4934 10.7158,11.1574 10.7158,9.5094 C10.7158,7.8614 11.8068,6.5254 13.1528,6.5254 C14.4998,6.5254 15.5908,7.8614 15.5908,9.5094" id="Fill-10" fill="#FFFFFF"></path>
                    <path d="M22.5903,9.526 C22.5903,11.174 21.4993,12.51 20.1523,12.51 C18.8073,12.51 17.7153,11.174 17.7153,9.526 C17.7153,7.878 18.8073,6.542 20.1523,6.542 C21.4993,6.542 22.5903,7.878 22.5903,9.526" id="Fill-11" fill="#FFFFFF"></path>
                    <path d="M16.8735,13.3263 C13.4795,13.3263 10.5155,14.1193 8.8705,15.3023 C9.2825,16.2733 10.5275,17.0293 11.7485,17.7313 C13.2235,18.5793 15.6465,19.1533 16.8655,19.1533 C17.9905,19.1533 20.7755,18.3953 22.2795,17.4123 C23.3375,16.7223 24.4535,16.1133 24.8595,15.2903 C23.2115,14.1143 20.2565,13.3263 16.8735,13.3263" id="Fill-12" fill="#F5A519"></path>
                    <path d="M15.2138,9.526 C15.2138,10.569 14.5308,11.415 13.6898,11.415 C12.8478,11.415 12.1648,10.569 12.1648,9.526 C12.1648,8.483 12.8478,7.637 13.6898,7.637 C14.5308,7.637 15.2138,8.483 15.2138,9.526" id="Fill-13" fill="#000000"></path>
                    <path d="M14.645,9.0963 C14.645,9.5173 14.359,9.8593 14.006,9.8593 C13.653,9.8593 13.367,9.5173 13.367,9.0963 C13.367,8.6763 13.653,8.3353 14.006,8.3353 C14.359,8.3353 14.645,8.6763 14.645,9.0963" id="Fill-14" fill="#FFFFFF"></path>
                    <path d="M18.9599,10.0167 C18.8169,10.0167 18.6909,9.9137 18.6649,9.7687 C18.6489,9.6777 18.6409,9.5827 18.6409,9.4857 C18.6409,8.6877 19.2069,8.0387 19.9019,8.0387 C20.5969,8.0387 21.1629,8.6877 21.1629,9.4857 C21.1629,9.5557 21.1589,9.6237 21.1509,9.6907 C21.1299,9.8547 20.9779,9.9707 20.8149,9.9507 C20.6509,9.9297 20.5349,9.7797 20.5549,9.6157 C20.5609,9.5737 20.5639,9.5297 20.5639,9.4857 C20.5639,9.0187 20.2669,8.6387 19.9019,8.6387 C19.5369,8.6387 19.2399,9.0187 19.2399,9.4857 C19.2399,9.5467 19.2459,9.6067 19.2559,9.6637 C19.2849,9.8277 19.1759,9.9827 19.0129,10.0117 C18.9949,10.0147 18.9779,10.0167 18.9599,10.0167" id="Fill-15" fill="#000000"></path>
                    <path d="M10.0717,14.8092 C10.0717,14.8092 11.9457,16.4142 13.6697,16.8932 C15.6857,17.4532 18.5987,17.1892 19.7027,16.8192 C21.7097,16.1452 23.8427,14.6932 23.8427,14.6932 C23.8427,14.6932 21.9577,16.1352 20.0137,17.4062 C19.0367,18.0442 17.9667,18.9532 15.7147,18.4652 C15.1437,18.3422 14.1217,17.6502 13.7967,17.4622 C12.1327,16.4992 10.4617,15.1972 10.0717,14.8092" id="Fill-16" fill="#8A3322"></path>
                    <path d="M12.1401,23.3629 L12.1401,28.7979 C12.1401,28.7979 9.8941,29.8609 7.8821,27.9409 C7.1111,27.2059 8.2951,21.9749 8.2951,21.9749 L12.1401,23.3629 Z" id="Fill-17" fill="#D42E19"></path>
                    <path d="M7.9907,22.3121 L12.1077,25.6091 C12.1077,25.6091 12.1767,23.5481 12.0877,22.9611 C11.9977,22.3751 7.9907,22.0211 7.9907,22.0211" id="Fill-18" fill="#B82C22"></path>
                    <path d="M16.873,24.2896 C11.69,24.2896 6.804,22.4476 2.946,19.0716 C2.852,18.9896 2.881,18.7276 2.881,18.7276 C2.881,18.7276 3.029,18.1536 3.275,16.7786 C3.447,15.8176 3.837,14.6386 4.044,14.6386 C4.176,14.7476 4.335,14.8926 4.492,15.0396 C4.775,15.3046 5.049,15.5776 5.139,15.6626 C8.333,18.6516 12.471,20.2896 16.873,20.2896 C21.253,20.2896 25.405,18.6516 28.599,15.6696 C28.625,15.6456 29.318,16.5436 29.629,17.4566 C29.962,18.4346 30.299,19.4986 29.992,19.7416 C26.267,22.6876 21.682,24.2896 16.873,24.2896" id="Fill-19" fill="#D42E19"></path>
                </g>
            </g>
        </g>
    </g>
</svg>