<?xml version="1.0" encoding="UTF-8"?>
<svg width="60px" height="60px" viewBox="0 0 60 60" version="1.1" xmlns="http://www.w3.org/2000/svg" xmlns:xlink="http://www.w3.org/1999/xlink">
    <!-- Generator: Sketch 47.1 (45422) - http://www.bohemiancoding.com/sketch -->
    <title>Twitter</title>
    <desc>Created with Sketch.</desc>
    <defs></defs>
    <g id="Page-1" stroke="none" stroke-width="1" fill="none" fill-rule="evenodd">
        <g id="Social_icons" transform="translate(-500.000000, -200.000000)">
            <g id="Twitter" transform="translate(500.000000, 200.000000)">
                <path d="M0,30 C0,13.4314567 13.4314567,0 30,0 C46.5685433,0 60,13.4314567 60,30 C60,46.5685433 46.5685433,60 30,60 C13.4314567,60 0,46.5685433 0,30 Z" id="back" fill="#55ACEE"></path>
                <path d="M29.1015033,24.3843758 L29.1644564,25.4224435 L28.1152374,25.2953331 C24.2960803,24.8080769 20.9595639,23.1556426 18.1266726,20.3804004 L16.7417035,19.0033719 L16.3849691,20.0202545 C15.6295314,22.2870554 16.1121721,24.6809665 17.6860006,26.2910307 C18.5253758,27.180803 18.3365164,27.3079133 16.8885942,26.778287 C16.3849691,26.6088065 15.9442971,26.4816962 15.9023283,26.5452514 C15.7554377,26.6935467 16.2590628,28.6213867 16.657766,29.3840487 C17.2033599,30.4433014 18.315532,31.4813691 19.5326261,32.0957357 L20.5608607,32.582992 L19.3437666,32.604177 C18.1686414,32.604177 18.1266726,32.6253621 18.2525789,33.0702482 C18.6722665,34.4472768 20.3300325,35.9090455 22.1766579,36.5445972 L23.4776895,36.9894833 L22.344533,37.6674051 C20.6657826,38.6419176 18.6932509,39.192729 16.7207192,39.2350991 C15.7764221,39.2562842 15,39.3410244 15,39.4045796 C15,39.6164301 17.5600943,40.8027932 19.0499853,41.2688644 C23.5196582,42.645893 28.8287063,42.0527114 32.8157385,39.7011703 C35.6486298,38.027551 38.4815211,34.7014974 39.803537,31.4813691 C40.5170059,29.7653797 41.2304749,26.6299916 41.2304749,25.1258527 C41.2304749,24.1513402 41.293428,24.0242299 42.4685533,22.8590518 C43.1610378,22.1811301 43.8115536,21.4396532 43.9374599,21.2278026 C44.1473037,20.8252866 44.1263193,20.8252866 43.0561159,21.1854325 C41.2724436,21.8209842 41.0206311,21.7362439 41.901975,20.7829165 C42.5524908,20.1049947 43.3289128,18.8762616 43.3289128,18.5161156 C43.3289128,18.4525605 43.0141471,18.5584857 42.6574127,18.7491512 C42.2796938,18.9610018 41.4403186,19.2787776 40.8107873,19.4694431 L39.6776307,19.829589 L38.6493961,19.1304822 C38.0828179,18.7491512 37.2854114,18.3254501 36.8657238,18.1983398 C35.7955205,17.901749 34.1587388,17.9441191 33.1934574,18.28308 C30.5704099,19.2364075 28.9126439,21.6938738 29.1015033,24.3843758 Z" id="Shape" fill="#FFFFFF"></path>
            </g>
        </g>
    </g>
</svg>