<?xml version="1.0" encoding="UTF-8"?>
<svg width="60px" height="60px" viewBox="0 0 60 60" version="1.1" xmlns="http://www.w3.org/2000/svg" xmlns:xlink="http://www.w3.org/1999/xlink">
    <!-- Generator: Sketch 47.1 (45422) - http://www.bohemiancoding.com/sketch -->
    <title>Wechat</title>
    <desc>Created with Sketch.</desc>
    <defs></defs>
    <g id="Page-1" stroke="none" stroke-width="1" fill="none" fill-rule="evenodd">
        <g id="Social_icons" transform="translate(-600.000000, -100.000000)">
            <g id="Wechat" transform="translate(600.000000, 100.000000)">
                <path d="M0,30 C0,13.4314567 13.4314567,0 30,0 C46.5685433,0 60,13.4314567 60,30 C60,46.5685433 46.5685433,60 30,60 C13.4314567,60 0,46.5685433 0,30 Z" id="back" fill="#45B035"></path>
                <g id="Group-5" transform="translate(10.000000, 14.000000)" fill="#FFFFFF">
                    <path d="M9.314,9.775 C8.206,9.775 7.308,8.904 7.308,7.832 C7.308,6.759 8.206,5.891 9.314,5.891 C10.422,5.891 11.322,6.759 11.322,7.832 C11.322,8.904 10.422,9.775 9.314,9.775 M19.256,5.891 C20.364,5.891 21.261,6.759 21.261,7.832 C21.261,8.904 20.364,9.775 19.256,9.775 C18.147,9.775 17.251,8.904 17.251,7.832 C17.251,6.759 18.147,5.891 19.256,5.891 M27.803,10.107 C28.005,10.107 28.205,10.109 28.404,10.12 C27.352,4.387 21.431,0 14.285,0 C6.395,0 0,5.349 0,11.947 C0,15.816 2.198,19.255 5.607,21.438 C5.651,21.466 5.738,21.521 5.738,21.521 L4.358,25.844 L9.522,23.214 C9.522,23.214 9.684,23.26 9.765,23.284 C11.184,23.679 12.706,23.893 14.285,23.893 C14.607,23.893 14.927,23.88 15.245,23.864 C14.952,22.955 14.791,22 14.791,21.014 C14.791,14.989 20.619,10.107 27.803,10.107" id="Fill-1"></path>
                    <path d="M22.0161,17.6071 C22.0161,16.7031 22.7761,15.9681 23.7111,15.9681 C24.6481,15.9681 25.4071,16.7031 25.4071,17.6071 C25.4071,18.5151 24.6481,19.2511 23.7111,19.2511 C22.7761,19.2511 22.0161,18.5151 22.0161,17.6071 M30.4151,17.6071 C30.4151,16.7031 31.1731,15.9681 32.1091,15.9681 C33.0461,15.9681 33.8041,16.7031 33.8041,17.6071 C33.8041,18.5151 33.0461,19.2511 32.1091,19.2511 C31.1731,19.2511 30.4151,18.5151 30.4151,17.6071 M15.8411,21.0841 C15.8411,26.6591 21.2461,31.1781 27.9121,31.1781 C29.2451,31.1781 30.5311,30.9961 31.7291,30.6611 C31.7981,30.6431 31.9351,30.6021 31.9351,30.6021 L36.2961,32.8261 L35.1301,29.1721 C35.1301,29.1721 35.2041,29.1261 35.2411,29.1031 C38.1201,27.2591 39.9781,24.3541 39.9781,21.0841 C39.9781,15.5111 34.5751,10.9921 27.9121,10.9921 C21.2461,10.9921 15.8411,15.5111 15.8411,21.0841" id="Fill-2"></path>
                </g>
            </g>
        </g>
    </g>
</svg>