<?xml version="1.0" encoding="UTF-8"?>
<svg width="60px" height="60px" viewBox="0 0 60 60" version="1.1" xmlns="http://www.w3.org/2000/svg" xmlns:xlink="http://www.w3.org/1999/xlink">
    <!-- Generator: Sketch 47.1 (45422) - http://www.bohemiancoding.com/sketch -->
    <title>Weibo</title>
    <desc>Created with Sketch.</desc>
    <defs></defs>
    <g id="Page-1" stroke="none" stroke-width="1" fill="none" fill-rule="evenodd">
        <g id="Social_icons" transform="translate(-602.000000, -300.000000)">
            <g id="Weibo" transform="translate(602.000000, 300.000000)">
                <path d="M30,60 C46.5685425,60 60,46.5685425 60,30 C60,13.4314575 46.5685425,0 30,0 C13.4314575,0 0,13.4314575 0,30 C0,46.5685425 13.4314575,60 30,60 Z" id="Oval" fill="#FFFFFF"></path>
                <g id="Sina_Weibo" transform="translate(12.000000, 16.000000)">
                    <path d="M3,19.5 C3,23.6426702 8.37408313,27 15,27 C21.6259169,27 27,23.6426702 27,19.5 C27,15.3573298 21.6259169,12 15,12 C8.37408313,12 3,15.3573298 3,19.5" id="Shape" fill="#FFFFFF"></path>
                    <path d="M14.9311888,26.8682147 C9.04697649,27.4581739 3.96693983,24.7661752 3.58446602,20.8645124 C3.20199222,16.9578919 7.66418659,13.3189839 13.5434954,12.7290248 C19.4277078,12.1390656 24.5077444,14.8310642 24.8853147,18.7327271 C25.272692,22.6393476 20.8104977,26.2832132 14.9311888,26.8682147 M26.69471,13.9039855 C26.194552,13.7502986 25.8513063,13.6511458 26.1111923,12.986822 C26.6799995,11.5441487 26.7388416,10.299781 26.1209993,9.40740579 C24.9686744,7.74163867 21.8108138,7.8308762 18.1920232,9.36278703 C18.1920232,9.36278703 17.0544088,9.8635087 17.3486194,8.95626053 C17.9027161,7.14672185 17.8193564,5.63464158 16.9563386,4.75713925 C14.9949345,2.76912552 9.77269601,4.83150386 5.29579112,9.35782939 C1.94669359,12.7438977 0,16.3381868 0,19.4466273 C0,25.3858803 7.53669532,29 14.9066713,29 C24.5714901,29 30.9999921,23.3235019 30.9999921,18.817007 C31.0048956,16.0903048 28.7345703,14.5435211 26.69471,13.9039855" id="Shape" fill="#E6162D"></path>
                    <path d="M33.4694908,3.0481144 C31.0328202,0.506552864 27.4392429,-0.460973402 24.1220947,0.203298363 L24.1220947,0.203298363 C23.3542363,0.357332395 22.867926,1.0697398 23.0317357,1.78696076 C23.1955455,2.50899529 23.9480468,2.96628382 24.7159052,2.81224979 C27.0757899,2.34052056 29.6301989,3.02886015 31.3604398,4.83394646 C33.0906807,6.63903278 33.5616338,9.09876374 32.8193707,11.2552402 L32.8193707,11.2552402 C32.5787751,11.9580205 32.9882996,12.7089364 33.7356817,12.9351739 C34.4830639,13.1614113 35.2816366,12.7763263 35.5222322,12.0783596 L35.5222322,12.073546 C36.5665197,9.04581454 35.9061614,5.58486237 33.4694908,3.0481144" id="Shape" fill="#FF9933"></path>
                    <path d="M29.7237466,6.55374074 C28.4920804,5.25707362 26.6764347,4.76262468 25.0041293,5.1057117 C24.3192805,5.24193743 23.8839502,5.88774829 24.0272907,6.53860455 C24.17594,7.18946081 24.8501711,7.60318339 25.529711,7.46191226 L25.529711,7.46191226 C26.3472825,7.29541415 27.2391787,7.53759322 27.839085,8.16826789 C28.4389914,8.80398796 28.6035675,9.6667509 28.3434311,10.4235605 L28.3434311,10.4235605 C28.1310748,11.0542352 28.4920804,11.7353638 29.1610026,11.9422251 C29.8299247,12.144041 30.5413181,11.800954 30.7589832,11.1652339 C31.2845649,9.61629693 30.9554127,7.85040786 29.7237466,6.55374074" id="Shape" fill="#FF9933"></path>
                    <path d="M15.8864165,20.2835677 C15.6671068,20.642386 15.1814925,20.811828 14.805533,20.6623204 C14.4295736,20.5177963 14.3146971,20.1141258 14.5287851,19.7652747 C14.7480948,19.4164236 15.2128225,19.2469816 15.5835603,19.386522 C15.9595197,19.5160953 16.0952829,19.9197659 15.8864165,20.2835677 M13.886521,22.7255255 C13.2808085,23.6474891 11.9806154,24.0511597 11.0041651,23.6275548 C10.0433798,23.2089334 9.75618855,22.1374622 10.361901,21.2354329 C10.9623918,20.3383872 12.2155901,19.9397002 13.1868187,20.32842 C14.1684906,20.7320906 14.4817902,21.7935947 13.886521,22.7255255 M16.1631644,16.1970262 C13.181597,15.4544717 9.8136268,16.8747941 8.51865531,19.3815385 C7.19757553,21.9381187 8.47688204,24.7787634 11.4845578,25.7057106 C14.60711,26.667543 18.2831581,25.1924012 19.5624646,22.4364774 C20.8261061,19.7353732 19.249165,16.9595151 16.1631644,16.1970262" id="Shape" fill="#000000"></path>
                </g>
            </g>
        </g>
    </g>
</svg>