<?xml version="1.0" encoding="UTF-8"?>
<svg width="60px" height="60px" viewBox="0 0 60 60" version="1.1" xmlns="http://www.w3.org/2000/svg" xmlns:xlink="http://www.w3.org/1999/xlink">
    <!-- Generator: Sketch 47.1 (45422) - http://www.bohemiancoding.com/sketch -->
    <title>Wordpress</title>
    <desc>Created with Sketch.</desc>
    <defs></defs>
    <g id="Page-1" stroke="none" stroke-width="1" fill="none" fill-rule="evenodd">
        <g id="Social_icons" transform="translate(-702.000000, -803.000000)">
            <g id="Wordpress" transform="translate(702.000000, 803.000000)">
                <path d="M0,30 C0,13.4314567 13.4314567,0 30,0 C46.5685433,0 60,13.4314567 60,30 C60,46.5685433 46.5685433,60 30,60 C13.4314567,60 0,46.5685433 0,30 Z" id="back" fill="#FFFFFF"></path>
                <path d="M15,30.2279138 C15,36.2849012 18.672848,41.5200375 24,44 L16.3827215,24 C15.4967423,25.9030637 15,28.0092938 15,30.2279138" id="Fill-1" fill="#3E3D3A"></path>
                <path d="M39.9967747,29.7050139 C39.9967747,27.7904476 39.3207258,26.4655254 38.7416136,25.4340583 C37.9700612,24.1578023 37.246171,23.0782158 37.246171,21.8019598 C37.246171,20.3786117 38.3072794,19.0535072 39.802722,19.0535072 C39.8702731,19.0535072 39.9342407,19.0617094 40,19.0659016 C37.2915037,16.5414592 33.6829825,15 29.7196834,15 C24.4008819,15 19.722114,17.7761576 17,21.9800378 C17.3574656,21.9917031 17.6941462,21.9988116 17.9797604,21.9988116 C19.5717814,21.9988116 22.0371294,21.8019598 22.0371294,21.8019598 C22.8574189,21.7531114 22.9543557,22.9794253 22.1346037,23.0782158 C22.1346037,23.0782158 21.3094763,23.1762772 20.39225,23.2253079 L25.9357442,40 L29.2677895,29.8360662 L26.8961531,23.2253079 C26.0758636,23.1762772 25.2992942,23.0782158 25.2992942,23.0782158 C24.4788255,23.0288206 24.5750456,21.7531114 25.3958726,21.8019598 C25.3958726,21.8019598 27.9095994,21.9988116 29.4054004,21.9988116 C30.997063,21.9988116 33.4629485,21.8019598 33.4629485,21.8019598 C34.2835964,21.7531114 34.380354,22.9794253 33.5600645,23.0782158 C33.5600645,23.0782158 32.7342204,23.1762772 31.81789,23.2253079 L37.3196351,39.8722286 L38.8383712,34.7112475 C39.4956062,32.5682966 39.9967747,31.0303006 39.9967747,29.7050139" id="Fill-3" fill="#3E3D3A"></path>
                <path d="M30.3941744,31 L26,44.3748968 C27.3123061,44.7791735 28.6997587,45 30.1370217,45 C31.8422958,45 33.4779386,44.6916013 35,44.1304168 C34.9610479,44.064512 34.9246811,43.9948153 34.8950362,43.9189796 L30.3941744,31 Z" id="Fill-5" fill="#3E3D3A"></path>
                <path d="M44.0294466,23 C44.0985655,23.4976094 44.1375752,24.0314454 44.1375752,24.6066569 C44.1375752,26.1914307 43.8319368,27.9737036 42.9140747,30.202648 L38,44 C42.7832221,41.2918352 46,36.2594704 46,30.4954027 C46,27.7789629 45.2853288,25.2252666 44.0294466,23" id="Fill-7" fill="#3E3D3A"></path>
                <path d="M29.9998183,47.1747096 C20.5300176,47.1747096 12.825468,39.4695759 12.825468,29.9995456 C12.825468,20.5296971 20.5300176,12.8254722 29.9998183,12.8254722 C39.4696189,12.8254722 47.1743503,20.5296971 47.1743503,29.9995456 C47.1743503,39.4695759 39.4696189,47.1747096 29.9998183,47.1747096 M29.9998183,12 C20.0745744,12 12,20.0744334 12,29.9995456 C12,39.9252031 20.0745744,48 29.9998183,48 C39.9250621,48 48,39.9252031 48,29.9995456 C48,20.0744334 39.9250621,12 29.9998183,12" id="Fill-9" fill="#3E3D3A"></path>
            </g>
        </g>
    </g>
</svg>